<svg xmlns="http://www.w3.org/2000/svg" viewBox="0 0 600 340"><rect width="600" height="340" rx="28" fill="#f2f8f5"/><rect x="24" y="24" width="552" height="292" rx="22" fill="#fff" stroke="#d4e5dc" stroke-width="3"/><rect x="24" y="24" width="552" height="58" rx="22" fill="#2e6b52"/><text x="52" y="61" font-family="Arial" font-size="22" font-weight="800" fill="#fff">DRIVING LICENCE</text><circle cx="95" cy="166" r="45" fill="#e9f0ed"/><circle cx="95" cy="153" r="15" fill="#7c9b8c"/><path d="M67 195c10-22 46-22 56 0" fill="#7c9b8c"/><rect x="170" y="120" width="260" height="12" rx="6" fill="#d8e5df"/><rect x="170" y="148" width="205" height="12" rx="6" fill="#d8e5df"/><rect x="170" y="176" width="170" height="12" rx="6" fill="#d8e5df"/><path d="M435 118h80v80h-80z" fill="#f4f7f6" stroke="#bdd1c6" stroke-width="3"/><path d="M450 138h50v40h-50z" fill="#dbe8e2"/><circle cx="505" cy="222" r="28" fill="#e6f1eb"/><path d="M492 222l9 9 17-20" fill="none" stroke="#2e6b52" stroke-width="6"/><text x="300" y="265" text-anchor="middle" font-family="Arial" font-size="18" font-weight="700" fill="#2e6b52">INDIA • LICENCE CARD</text></svg>
